<svg width="23" height="25" viewBox="0 0 23 25" fill="none" xmlns="http://www.w3.org/2000/svg">
<g clip-path="url(#clip0_5253_2755)">
<path d="M16.019 5.76929C16.019 5.38116 15.7018 5.06616 15.3109 5.06616H7.28529C6.89439 5.06616 6.57715 5.38116 6.57715 5.76929C6.57715 6.15741 6.89439 6.47241 7.28529 6.47241H15.3109C15.7018 6.47241 16.019 6.15741 16.019 5.76929Z" fill="black"/>
<path d="M9.24622 4.59765H13.3496C14.0937 3.42109 14.5988 2.18969 14.6753 1.34781C14.7532 0.489061 13.9959 0.219999 13.2699 0.49328C12.5438 0.766561 11.8748 0.900155 11.2979 0.900155C10.721 0.900155 10.0521 0.766561 9.326 0.49328C8.59992 0.219999 7.84268 0.489061 7.92058 1.34781C7.99706 2.18969 8.5022 3.42109 9.24622 4.59765Z" fill="black"/>
<path d="M14.8525 9.98476C14.9606 10.034 15.0744 10.0537 15.1853 10.0471C15.4398 10.0326 15.6772 9.88257 15.7901 9.63647C15.9525 9.28304 15.7953 8.86585 15.4393 8.70507C14.497 8.27897 13.9994 7.55429 13.7379 6.94116H10.8152C10.5253 7.49241 10.3251 8.18241 10.3761 9.01022C10.4002 9.39694 10.734 9.69132 11.123 9.66929H11.1263C11.5167 9.64538 11.8136 9.31163 11.7896 8.92397C11.7433 8.17913 12.0166 7.60022 12.3211 7.19476C12.6488 8.1121 13.3517 9.30647 14.8525 9.98476Z" fill="black"/>
<path d="M15.3106 4.59765C15.4159 4.59765 15.5179 4.61124 15.6147 4.63749C16.9422 3.33858 16.4484 2.23937 16.1141 1.90749C15.888 1.68296 15.5547 1.5053 15.136 1.47437C15.0354 2.34108 14.5704 3.48952 13.9033 4.59765H15.3106Z" fill="black"/>
<path d="M13.5268 15.3859C13.0363 15.3859 12.6856 15.5111 12.4755 15.7619C12.2649 16.0122 12.1596 16.2977 12.1596 16.6178C12.1596 17.5642 12.6086 18.0377 13.5056 18.0377L13.7581 18.017C13.7303 18.6016 13.4357 19.172 12.8749 19.7289C12.3282 20.2722 11.8093 20.5436 11.3188 20.5436C10.9402 20.5436 10.6669 20.4531 10.4983 20.2722C10.3303 20.0913 10.2462 19.8892 10.2462 19.6666V16.8264H11.8235L10.8349 15.8242H10.2462V13.6319C10.2462 12.9559 10.0706 12.4975 9.8766 12.2139C9.74441 12.0208 9.4588 11.7316 8.83705 11.7316C8.51131 11.7316 8.30217 11.7738 8.07981 11.9195C7.75926 12.1295 7.65918 12.4834 7.65918 12.4834C7.77154 12.7755 7.89051 13.0263 8.01703 13.2348C8.0869 13.1655 8.27998 13.1153 8.45843 13.1308C8.74877 13.1556 9.19443 13.3975 9.19443 13.8405V15.8242H7.21777L8.18509 16.8264H9.19443V20.1259C9.19443 20.6936 9.55794 21.145 9.83789 21.3358C10.1155 21.5256 10.445 21.692 11.2976 21.692C11.8301 21.692 13.3588 21.2603 14.1575 20.3973C14.971 19.5344 15.3774 18.6292 15.3774 17.6828C15.3774 17.0425 15.1952 16.4997 14.8307 16.0539C14.48 15.6086 14.0457 15.3859 13.5268 15.3859Z" fill="black"/>
<path d="M9.57627 7.44134H7.28483C7.12311 7.44134 6.96648 7.41837 6.81815 7.37563C3.94779 9.04894 0.797852 12.5181 0.797852 19.5352C0.797852 20.6054 1.00991 21.3673 1.38889 21.9264C1.76553 22.4821 2.34481 22.8933 3.18738 23.1922C4.91339 23.8044 7.56687 23.8906 11.2976 23.8906C15.0284 23.8906 17.6819 23.8045 19.4079 23.1923C20.2504 22.8935 20.8297 22.4824 21.2063 21.9266C21.5853 21.3675 21.7974 20.6055 21.7974 19.5352C21.7974 12.5182 18.6475 9.04905 15.7768 7.37572C15.6285 7.4184 15.472 7.44134 15.3104 7.44134H15.25C15.4231 7.59593 15.6201 7.72292 15.8411 7.82285L9.57627 7.44134ZM9.57627 7.44134C9.42918 7.96444 9.37242 8.5096 9.40683 9.06965L9.40684 9.06993C9.46158 9.95292 10.1994 10.6392 11.0828 10.6392C11.1098 10.6392 11.1365 10.6385 11.1633 10.6371L11.1698 10.6368H11.1713L11.1866 10.6359C11.856 10.5948 12.4134 10.1663 12.6466 9.58093C13.1032 10.07 13.692 10.523 14.4496 10.8657C14.6695 10.9661 14.9043 11.017 15.1447 11.017C15.1735 11.017 15.2073 11.0164 15.243 11.0142C15.8647 10.9784 16.4151 10.6056 16.6746 10.0397C16.8609 9.6336 16.8773 9.17682 16.7197 8.75831C16.5623 8.34031 16.2493 8.00687 15.8414 7.82295L9.57627 7.44134ZM7.48468 17.4981L7.4845 17.498L6.5172 16.4958C6.2472 16.2161 6.17021 15.8016 6.32388 15.4435C6.32395 15.4433 6.32401 15.4432 6.32407 15.443L6.78346 15.6404L7.48468 17.4981ZM7.48468 17.4981C7.6684 17.6883 7.92104 17.7951 8.18511 17.7951H8.22235V20.1259C8.22235 21.0218 8.75513 21.7709 9.28873 22.1349C9.77028 22.4641 10.3141 22.6607 11.2976 22.6607C11.7188 22.6607 12.3633 22.5178 13.0029 22.2638C13.647 22.0079 14.3544 21.6127 14.868 21.0588C15.8275 20.0396 16.3495 18.9018 16.3495 17.6827C16.3495 16.8344 16.0991 16.0744 15.5899 15.4489C15.0605 14.7796 14.3578 14.4171 13.5268 14.4171C12.7982 14.4171 12.1583 14.63 11.7298 15.1395L11.7291 15.1404M7.48468 17.4981L11.7291 15.1404M8.22235 14.1817C8.15528 14.1961 8.08648 14.2035 8.01704 14.2035C7.98212 14.2035 7.94177 14.2019 7.89826 14.1965L8.22235 14.1817ZM8.22235 14.1817V14.8554V14.1817ZM7.18448 13.7355L7.18389 13.7345C7.02578 13.4725 6.88086 13.1669 6.75141 12.8293L6.75099 12.8282C6.67724 12.6345 6.667 12.4218 6.7239 12.2208C6.72394 12.2207 6.72397 12.2205 6.72401 12.2204L7.20504 12.3568L7.18448 13.7355ZM7.18448 13.7355C7.3394 13.9909 7.60264 14.1599 7.89786 14.1964L7.18448 13.7355ZM11.7291 15.1404C11.6973 15.1784 11.6668 15.217 11.6376 15.2564L11.529 15.1463C11.5288 15.1462 11.5286 15.146 11.5284 15.1458C11.4388 15.0546 11.3332 14.9831 11.2184 14.934V13.6318C11.2184 12.6833 10.9407 12.0497 10.6798 11.6683L11.7291 15.1404Z" fill="black" stroke="black"/>
<path d="M10.7178 17.2952V19.6666C10.7178 19.7369 10.7319 19.833 10.8448 19.9539C10.917 20.0317 11.0851 20.0749 11.3183 20.0749C11.6766 20.0749 12.0878 19.847 12.5405 19.3975C12.846 19.0942 13.0589 18.7895 13.1774 18.4867C12.7501 18.4338 12.406 18.272 12.152 18.0039C11.9726 17.8145 11.8447 17.5778 11.7687 17.2952H10.7178Z" fill="black"/>
<path d="M7.28533 4.59765H8.69264C8.02557 3.48952 7.56056 2.34108 7.46 1.47437C7.04126 1.5053 6.70796 1.68296 6.48183 1.90749C6.14758 2.23937 5.65377 3.33858 6.9813 4.63749C7.07808 4.61124 7.18005 4.59765 7.28533 4.59765Z" fill="black"/>
</g>
<defs>
<clipPath id="clip0_5253_2755">
<rect width="22" height="24" fill="white" transform="translate(0.297852 0.390625)"/>
</clipPath>
</defs>
</svg>
