<svg width="25" height="24" viewBox="0 0 25 24" fill="none" xmlns="http://www.w3.org/2000/svg">
<path d="M17.0481 3.56V2C17.0481 1.59 16.7081 1.25 16.2981 1.25C15.8881 1.25 15.5481 1.59 15.5481 2V3.5H9.04808V2C9.04808 1.59 8.70808 1.25 8.29808 1.25C7.88808 1.25 7.54808 1.59 7.54808 2V3.56C4.84808 3.81 3.53808 5.42 3.33808 7.81C3.31808 8.1 3.55808 8.34 3.83808 8.34H20.7581C21.0481 8.34 21.2881 8.09 21.2581 7.81C21.0581 5.42 19.7481 3.81 17.0481 3.56Z" fill="#292D32"/>
<path d="M20.2979 9.84009H4.29785C3.74785 9.84009 3.29785 10.2901 3.29785 10.8401V17.0001C3.29785 20.0001 4.79785 22.0001 8.29785 22.0001H16.2979C19.7979 22.0001 21.2979 20.0001 21.2979 17.0001V10.8401C21.2979 10.2901 20.8479 9.84009 20.2979 9.84009ZM9.50785 18.2101C9.45785 18.2501 9.40785 18.3001 9.35785 18.3301C9.29785 18.3701 9.23785 18.4001 9.17785 18.4201C9.11785 18.4501 9.05785 18.4701 8.99785 18.4801C8.92785 18.4901 8.86785 18.5001 8.79785 18.5001C8.66785 18.5001 8.53785 18.4701 8.41785 18.4201C8.28785 18.3701 8.18785 18.3001 8.08785 18.2101C7.90785 18.0201 7.79785 17.7601 7.79785 17.5001C7.79785 17.2401 7.90785 16.9801 8.08785 16.7901C8.18785 16.7001 8.28785 16.6301 8.41785 16.5801C8.59785 16.5001 8.79785 16.4801 8.99785 16.5201C9.05785 16.5301 9.11785 16.5501 9.17785 16.5801C9.23785 16.6001 9.29785 16.6301 9.35785 16.6701C9.40785 16.7101 9.45785 16.7501 9.50785 16.7901C9.68785 16.9801 9.79785 17.2401 9.79785 17.5001C9.79785 17.7601 9.68785 18.0201 9.50785 18.2101ZM9.50785 14.7101C9.31785 14.8901 9.05785 15.0001 8.79785 15.0001C8.53785 15.0001 8.27785 14.8901 8.08785 14.7101C7.90785 14.5201 7.79785 14.2601 7.79785 14.0001C7.79785 13.7401 7.90785 13.4801 8.08785 13.2901C8.36785 13.0101 8.80785 12.9201 9.17785 13.0801C9.30785 13.1301 9.41785 13.2001 9.50785 13.2901C9.68785 13.4801 9.79785 13.7401 9.79785 14.0001C9.79785 14.2601 9.68785 14.5201 9.50785 14.7101ZM13.0079 18.2101C12.8179 18.3901 12.5579 18.5001 12.2979 18.5001C12.0379 18.5001 11.7779 18.3901 11.5879 18.2101C11.4079 18.0201 11.2979 17.7601 11.2979 17.5001C11.2979 17.2401 11.4079 16.9801 11.5879 16.7901C11.9579 16.4201 12.6379 16.4201 13.0079 16.7901C13.1879 16.9801 13.2979 17.2401 13.2979 17.5001C13.2979 17.7601 13.1879 18.0201 13.0079 18.2101ZM13.0079 14.7101C12.9579 14.7501 12.9079 14.7901 12.8579 14.8301C12.7979 14.8701 12.7379 14.9001 12.6779 14.9201C12.6179 14.9501 12.5579 14.9701 12.4979 14.9801C12.4279 14.9901 12.3679 15.0001 12.2979 15.0001C12.0379 15.0001 11.7779 14.8901 11.5879 14.7101C11.4079 14.5201 11.2979 14.2601 11.2979 14.0001C11.2979 13.7401 11.4079 13.4801 11.5879 13.2901C11.6779 13.2001 11.7879 13.1301 11.9179 13.0801C12.2879 12.9201 12.7279 13.0101 13.0079 13.2901C13.1879 13.4801 13.2979 13.7401 13.2979 14.0001C13.2979 14.2601 13.1879 14.5201 13.0079 14.7101ZM16.5079 18.2101C16.3179 18.3901 16.0579 18.5001 15.7979 18.5001C15.5379 18.5001 15.2779 18.3901 15.0879 18.2101C14.9079 18.0201 14.7979 17.7601 14.7979 17.5001C14.7979 17.2401 14.9079 16.9801 15.0879 16.7901C15.4579 16.4201 16.1379 16.4201 16.5079 16.7901C16.6879 16.9801 16.7979 17.2401 16.7979 17.5001C16.7979 17.7601 16.6879 18.0201 16.5079 18.2101ZM16.5079 14.7101C16.4579 14.7501 16.4079 14.7901 16.3579 14.8301C16.2979 14.8701 16.2379 14.9001 16.1779 14.9201C16.1179 14.9501 16.0579 14.9701 15.9979 14.9801C15.9279 14.9901 15.8579 15.0001 15.7979 15.0001C15.5379 15.0001 15.2779 14.8901 15.0879 14.7101C14.9079 14.5201 14.7979 14.2601 14.7979 14.0001C14.7979 13.7401 14.9079 13.4801 15.0879 13.2901C15.1879 13.2001 15.2879 13.1301 15.4179 13.0801C15.5979 13.0001 15.7979 12.9801 15.9979 13.0201C16.0579 13.0301 16.1179 13.0501 16.1779 13.0801C16.2379 13.1001 16.2979 13.1301 16.3579 13.1701C16.4079 13.2101 16.4579 13.2501 16.5079 13.2901C16.6879 13.4801 16.7979 13.7401 16.7979 14.0001C16.7979 14.2601 16.6879 14.5201 16.5079 14.7101Z" fill="#292D32"/>
</svg>
