<svg width="19" height="18" viewBox="0 0 19 18" fill="none" xmlns="http://www.w3.org/2000/svg">
<g clip-path="url(#clip0_5253_1691)">
<path d="M16.1997 10.1089H14.8076C14.9495 10.4974 15.027 10.9166 15.027 11.3536V16.6147C15.027 16.7969 14.9953 16.9718 14.9376 17.1344H17.239C18.0987 17.1344 18.798 16.435 18.798 15.5753V12.7073C18.7981 11.2745 17.6324 10.1089 16.1997 10.1089Z" fill="black"/>
<path d="M4.56889 11.3536C4.56889 10.9166 4.64641 10.4974 4.7883 10.1089H3.39626C1.96349 10.1089 0.797852 11.2745 0.797852 12.7073V15.5754C0.797852 16.435 1.49722 17.1344 2.35689 17.1344H4.6583C4.60061 16.9717 4.56889 16.7969 4.56889 16.6147V11.3536Z" fill="black"/>
<path d="M11.3892 8.75513H8.2068C6.77404 8.75513 5.6084 9.92077 5.6084 11.3535V16.6147C5.6084 16.9017 5.84106 17.1344 6.12808 17.1344H13.4679C13.755 17.1344 13.9876 16.9017 13.9876 16.6147V11.3535C13.9876 9.92077 12.822 8.75513 11.3892 8.75513Z" fill="black"/>
<path d="M9.79776 1.86548C8.07467 1.86548 6.67285 3.2673 6.67285 4.99042C6.67285 6.15919 7.31794 7.17995 8.2706 7.71588C8.72247 7.97006 9.24341 8.11532 9.79776 8.11532C10.3521 8.11532 10.873 7.97006 11.3249 7.71588C12.2776 7.17995 12.9227 6.15915 12.9227 4.99042C12.9227 3.26734 11.5208 1.86548 9.79776 1.86548Z" fill="black"/>
<path d="M4.31065 4.77808C3.02199 4.77808 1.97363 5.82644 1.97363 7.11509C1.97363 8.40375 3.02199 9.45211 4.31065 9.45211C4.63753 9.45211 4.94881 9.3844 5.23157 9.26269C5.72045 9.05221 6.12356 8.67962 6.37299 8.21292C6.54807 7.88537 6.64767 7.51169 6.64767 7.11509C6.64767 5.82647 5.5993 4.77808 4.31065 4.77808Z" fill="black"/>
<path d="M15.2853 4.77808C13.9966 4.77808 12.9482 5.82644 12.9482 7.11509C12.9482 7.51173 13.0478 7.8854 13.2229 8.21292C13.4724 8.67965 13.8755 9.05224 14.3643 9.26269C14.6471 9.3844 14.9584 9.45211 15.2853 9.45211C16.5739 9.45211 17.6223 8.40375 17.6223 7.11509C17.6223 5.82644 16.5739 4.77808 15.2853 4.77808Z" fill="black"/>
</g>
<defs>
<clipPath id="clip0_5253_1691">
<rect width="18" height="18" fill="white" transform="translate(0.797852)"/>
</clipPath>
</defs>
</svg>
