<svg width="25" height="24" viewBox="0 0 25 24" fill="none" xmlns="http://www.w3.org/2000/svg">
<path d="M18.2979 2H6.29785C4.63785 2 3.29785 3.33 3.29785 4.97V15.88C3.29785 17.52 4.63785 18.86 6.29785 18.86H7.05785C7.84785 18.86 8.61785 19.17 9.17785 19.73L10.8879 21.42C11.6679 22.19 12.9279 22.19 13.7079 21.42L15.4179 19.73C15.9779 19.17 16.7479 18.86 17.5379 18.86H18.2979C19.9579 18.86 21.2979 17.52 21.2979 15.88V4.97C21.2979 3.33 19.9579 2 18.2979 2ZM12.2979 5.55C13.3779 5.55 14.2479 6.43 14.2479 7.5C14.2479 8.56 13.4079 9.41 12.3679 9.45C12.3279 9.45 12.2679 9.45 12.2179 9.45C11.1679 9.41 10.3379 8.56 10.3379 7.5C10.3479 6.43 11.2179 5.55 12.2979 5.55ZM15.0479 14.69C13.5379 15.7 11.0579 15.7 9.54785 14.69C8.21785 13.81 8.21785 12.35 9.54785 11.46C11.0679 10.45 13.5479 10.45 15.0479 11.46C16.3779 12.35 16.3779 13.8 15.0479 14.69Z" fill="#292D32"/>
</svg>
