<svg width="25" height="25" viewBox="0 0 25 25" fill="none" xmlns="http://www.w3.org/2000/svg">
<path d="M12.7979 2.19897C10.82 2.19897 8.88664 2.78546 7.24215 3.88428C5.59766 4.98309 4.31594 6.54488 3.55906 8.37214C2.80218 10.1994 2.60415 12.2101 2.99 14.1499C3.37586 16.0897 4.32826 17.8715 5.72679 19.27C7.12531 20.6686 8.90714 21.621 10.847 22.0068C12.7868 22.3927 14.7974 22.1946 16.6247 21.4378C18.452 20.6809 20.0137 19.3992 21.1125 17.7547C22.2114 16.1102 22.7979 14.1768 22.7979 12.199C22.7979 10.8858 22.5392 9.5854 22.0366 8.37214C21.5341 7.15888 20.7975 6.05649 19.8689 5.12791C18.9403 4.19932 17.8379 3.46273 16.6247 2.96018C15.4114 2.45763 14.1111 2.19897 12.7979 2.19897ZM18.4779 11.739L16.3479 13.919L16.8479 17.019C16.8825 17.2074 16.8623 17.4019 16.7896 17.5791C16.7169 17.7564 16.5948 17.9091 16.4379 18.019C16.2837 18.1259 16.1025 18.1873 15.915 18.1962C15.7276 18.205 15.5414 18.1609 15.3779 18.069L12.7979 16.619L10.1979 18.049C10.0524 18.1346 9.88662 18.1795 9.71785 18.179C9.51054 18.1806 9.30786 18.1176 9.13786 17.999C8.98089 17.8891 8.85881 17.7364 8.78612 17.5591C8.71344 17.3819 8.69321 17.1874 8.72786 16.999L9.23785 13.899L7.09786 11.739C6.96849 11.6071 6.87816 11.442 6.8369 11.262C6.79563 11.082 6.80503 10.894 6.86406 10.719C6.92309 10.544 7.02944 10.3887 7.17132 10.2705C7.3132 10.1522 7.48507 10.0755 7.66786 10.049L10.5779 9.59898L11.8879 6.81897C11.9622 6.63791 12.0881 6.48265 12.2498 6.37244C12.4116 6.26223 12.6021 6.20192 12.7979 6.19898C12.988 6.19761 13.1747 6.25052 13.3358 6.35147C13.497 6.45243 13.6261 6.59726 13.7079 6.76898L15.0079 9.59898L17.9179 10.049C18.1 10.0762 18.271 10.1531 18.4122 10.2714C18.5533 10.3896 18.6591 10.5445 18.7179 10.719C18.7761 10.8946 18.7845 11.0829 18.7422 11.2629C18.6998 11.443 18.6083 11.6078 18.4779 11.739Z" fill="white"/>
</svg>
