<svg width="25" height="25" viewBox="0 0 25 25" fill="none" xmlns="http://www.w3.org/2000/svg">
<path d="M9.59707 3.77132C9.96738 4.31507 10.3002 5.19163 10.3002 6.48538V10.6854H11.4205L13.3002 12.6026H10.3002V18.0401C10.3002 18.4666 10.4596 18.851 10.7783 19.1979C11.0971 19.5448 11.6174 19.7182 12.3393 19.7182C13.2721 19.7182 14.2564 19.1979 15.2971 18.1573C16.3611 17.0932 16.9236 16.001 16.9752 14.8807L16.4971 14.9229C14.7908 14.9229 13.9377 14.0182 13.9377 12.2041C13.9377 11.5901 14.1393 11.0463 14.5377 10.5635C14.9361 10.0854 15.6018 9.84163 16.5346 9.84163C17.5189 9.84163 18.3486 10.2682 19.0143 11.1213C19.708 11.9744 20.0549 13.0151 20.0549 14.2385C20.0549 16.0526 19.2814 17.7823 17.7346 19.4369C16.2158 21.0869 13.3096 21.9166 12.2971 21.9166C10.6752 21.9166 10.0518 21.5979 9.52207 21.2369C8.99238 20.8713 8.29863 20.0088 8.29863 18.9213V12.6026H6.38145L4.54395 10.6854H8.30332V6.88851C8.30332 6.04007 7.45488 5.57601 6.90176 5.52913C6.56426 5.50101 6.19395 5.59476 6.0627 5.73069C5.82363 5.33226 5.59395 4.84944 5.38301 4.29163C5.38301 4.29163 5.57051 3.61663 6.18457 3.21351C6.60645 2.93694 7.00488 2.85257 7.62363 2.85257C8.8002 2.84788 9.34395 3.40101 9.59707 3.77132Z" fill="black"/>
</svg>
